<?xml version="1.0" encoding="iso-8859-1"?>
<!-- Generator: Adobe Illustrator 19.0.0, SVG Export Plug-In . SVG Version: 6.00 Build 0)  -->
<svg version="1.1" id="Layer_1" xmlns="http://www.w3.org/2000/svg" xmlns:xlink="http://www.w3.org/1999/xlink" x="0px" y="0px"
	 viewBox="0 0 512 512" style="enable-background:new 0 0 512 512;" xml:space="preserve">
<path style="fill:#7AB6DE;" d="M282.931,11.426c33.169,13.343,65.053,54.1,65.053,102.324c0,37.58-14.662,70.632-36.826,89.706
	l-7.547,5.743c-10.384,6.967-33.147,11.059-45.526,11.475c-0.687,0.021-1.385,0.031-2.083,0.031
	c-44.684,0-91.983-47.88-91.983-106.954c0-48.223,31.884-88.979,65.053-102.324h53.86V11.426z"/>
<g>
	<path style="fill:#4693BD;" d="M361.005,117.472c0,26.597-15.292,52.482-24.37,64.277c-11.176,14.522-35.42,22.199-35.42,22.199
		c21-19.289,34.891-52.709,34.891-90.708c0-48.762-22.858-89.973-54.284-103.466c0,0,38.736,10.452,62.005,45.084
		C352.073,67.129,361.005,89.766,361.005,117.472z"/>
	<path style="fill:#4693BD;" d="M292.528,215.461l-11.803,9.597c-7.314,1.607-14.883,2.527-22.641,2.649
		C270.463,227.264,282.144,222.897,292.528,215.461z"/>
</g>
<path style="fill:#94C8EF;" d="M255.791,219.429c-15.663,1.713-31.264,0.791-44.286-6.052
	c-25.521-13.413-59.954-40.754-59.367-98.873c0.438-43.294,12.542-67.643,46.22-91.797c5.178-3.714,17.224-12.084,23.483-13.886
	h9.963c-34,13.782-58.73,55.877-58.73,105.683C173.075,175.517,220.327,223.307,255.791,219.429z"/>
<path style="fill:#ADD9FF;" d="M256.001,6.095c11.492,0,22.43,3.38,32.327,9.486c-4.1,13.975-17.011,24.193-32.327,24.193
	s-28.227-10.218-32.327-24.193C233.571,9.475,244.509,6.095,256.001,6.095z"/>
<g>
	<path style="fill:#84C688;" d="M347.754,53.561h-25.149l10.549,51.466h29.488C361.409,86.231,356.125,68.71,347.754,53.561z"/>
	<path style="fill:#84C688;" d="M337.896,126.962c-1.093-2.041-2.979-3.505-5.164-4.083l-52.017,92.489v2.536
		c32.997-7.268,60.243-29.905,73.83-60.027L337.896,126.962z"/>
</g>
<g>
	<path style="fill:#C2D280;" d="M335.572,105.026h-67.048c-5.035,0-9.092-4.012-9.092-8.966v-8.378
		c-2.214-1.64-3.642-4.233-3.642-7.159c0-4.954,4.068-8.966,9.092-8.966h28.883v-9.043c0-4.943,4.079-8.954,9.092-8.954h20.689
		C330.301,68.71,334.571,86.231,335.572,105.026z"/>
	<path style="fill:#C2D280;" d="M334.297,122.559c0.798,0,1.585,0.111,2.338,0.321c-2.671,46.789-25.323,85.599-55.921,99.43
		v-39.508h-12.545c-10.218,0-18.53-9.387-18.53-20.923v-30.354c0-4.954,4.012-8.966,8.966-8.966L334.297,122.559L334.297,122.559z"
		/>
</g>
<path style="fill:#FF9B5F;" d="M94.228,103.773c-13.363,0-24.195,10.833-24.195,24.195v158.767h48.391V127.968
	C118.423,114.605,107.59,103.773,94.228,103.773z"/>
<path style="fill:#FEBB8E;" d="M85.176,264.571V127.968c0-13.363-10.833-24.195-24.196-24.195s-24.195,10.833-24.195,24.195
	l0.135,152.541c0.004,5.522,2.223,13.978,4.929,18.791l95.843,155.205c2.706,4.813,4.919,13.27,4.919,18.791v30.393h96.766v-52.087
	l-40.561-99.186L85.176,264.571z"/>
<path style="fill:#FCD5A2;" d="M239.379,390.48c0-16.566-9.584-39.703-21.297-51.417l-91.601-91.601
	c-9.449-9.449-24.769-9.449-34.218,0c-9.449,9.449-9.449,24.769,0,34.218l73.942,73.942v21.73c0,41.008,32.166,74.251,73.174,74.251
	L239.379,390.48L239.379,390.48z"/>
<path style="fill:#FF9B5F;" d="M417.774,103.773c13.363,0,24.195,10.833,24.195,24.195v158.767h-48.391V127.968
	C393.579,114.605,404.412,103.773,417.774,103.773z"/>
<path style="fill:#FEBB8E;" d="M426.826,264.571V127.968c0-13.363,10.833-24.195,24.196-24.195
	c13.363,0,24.195,10.833,24.195,24.195l-0.135,152.541c-0.004,5.522-2.223,13.978-4.929,18.791L374.31,454.504
	c-2.706,4.813-4.921,13.27-4.921,18.791v30.393h-96.766v-52.087l40.561-99.186L426.826,264.571z"/>
<path style="fill:#FCD5A2;" d="M272.623,390.48c0-16.566,9.584-39.703,21.298-51.417l91.601-91.601
	c9.449-9.449,24.769-9.449,34.218,0c9.449,9.449,9.449,24.769,0,34.218l-73.942,73.942v21.73c0,41.008-32.166,74.251-73.174,74.251
	V390.48H272.623z"/>
<path style="fill:#DBE8A4;" d="M179.096,133.908h-10.809V96.683h10.416l26.881-65.405l0.01-12.55
	c-34.846,17.391-58.769,53.391-58.769,94.986c0,44.315,27.169,82.292,65.765,98.18v-8.613L179.096,133.908z"/>
<g>
	<path style="fill:#C2D280;" d="M212.592,156.227v53.705c-18.408-16.535-31.751-43.298-36.028-74.617h15.105
		C203.205,135.314,212.592,144.69,212.592,156.227z"/>
	<path style="fill:#C2D280;" d="M205.056,22.708l-0.055,66.161c0,4.954-4.012,8.966-8.966,8.966c-3.436,0-6.428-1.95-7.935-4.776
		h-11.958C179.367,64.776,189.962,39.985,205.056,22.708z"/>
</g>
<g>
	<path style="fill:#1D2328;" d="M132.358,241.584c-10.513-10.513-26.491-12.297-38.87-5.368V127.968
		c0-5.498-1.378-10.679-3.797-15.224c1.456-0.433,2.981-0.661,4.536-0.661c8.758,0,15.883,7.125,15.883,15.883v79.913
		c0,4.59,3.721,8.312,8.312,8.312s8.312-3.721,8.312-8.312v-79.913c0-17.924-14.583-32.506-32.506-32.506
		c-5.929,0-11.645,1.601-16.634,4.58c-4.865-2.905-10.546-4.58-16.612-4.58c-17.924,0-32.506,14.582-32.506,32.514l0.135,152.541
		c0.006,6.962,2.583,16.787,5.994,22.856c0.055,0.1,0.114,0.197,0.174,0.295l95.743,155.042c1.988,3.626,3.78,10.521,3.78,14.586
		v30.394c0,4.59,3.721,8.312,8.312,8.312c4.59,0,8.312-3.721,8.312-8.312v-30.393c0-6.964-2.573-16.793-5.986-22.864
		c-0.057-0.1-0.114-0.197-0.174-0.295L49.021,295.096c-1.989-3.627-3.786-10.527-3.789-14.594l-0.135-152.533
		c0-8.758,7.126-15.883,15.883-15.883s15.884,7.125,15.884,15.883v136.602c0,0.195,0.016,0.387,0.029,0.578
		c0.144,8.13,3.301,16.217,9.492,22.407l74.447,74.446c3.246,3.246,8.509,3.246,11.754,0c3.246-3.246,3.246-8.508,0-11.754
		l-74.447-74.446c-6.193-6.193-6.193-16.27,0-22.463s16.27-6.193,22.464,0l91.601,91.601c10.224,10.224,18.863,31.079,18.863,45.539
		v113.207c0,4.59,3.721,8.312,8.312,8.312c4.59,0,8.312-3.721,8.312-8.312V390.48c0-18.82-10.424-43.987-23.733-57.294
		L132.358,241.584z"/>
	<path style="fill:#1D2328;" d="M451.022,95.461c-6.066,0-11.747,1.675-16.612,4.58c-4.988-2.979-10.705-4.58-16.634-4.58
		c-17.924,0-32.506,14.582-32.506,32.506v79.913c0,4.59,3.721,8.312,8.312,8.312s8.312-3.721,8.312-8.312v-79.913
		c0-8.758,7.126-15.883,15.883-15.883c1.555,0,3.08,0.227,4.536,0.661c-2.419,4.545-3.797,9.726-3.797,15.224v108.248
		c-12.378-6.928-28.356-5.144-38.87,5.369l-91.601,91.601c-13.308,13.308-23.733,38.474-23.733,57.294v113.206
		c0,4.59,3.721,8.312,8.312,8.312s8.312-3.721,8.312-8.312V390.48c0-14.46,8.639-35.315,18.863-45.539l91.601-91.601
		c6.193-6.193,16.27-6.193,22.463,0c6.193,6.193,6.193,16.27,0,22.463l-74.447,74.446c-3.246,3.246-3.246,8.508,0,11.754
		c3.246,3.246,8.509,3.246,11.754,0l74.447-74.446c6.191-6.191,9.348-14.277,9.492-22.407c0.013-0.192,0.029-0.383,0.029-0.578
		V127.968c0-8.758,7.126-15.883,15.883-15.883s15.884,7.125,15.884,15.876l-0.135,152.541c-0.003,4.067-1.801,10.967-3.789,14.594
		l-95.743,155.042c-0.06,0.096-0.117,0.195-0.174,0.295c-3.412,6.071-5.986,15.901-5.986,22.864v30.392
		c0,4.59,3.721,8.312,8.312,8.312c4.59,0,8.312-3.721,8.312-8.312v-30.393c0-4.065,1.792-10.96,3.78-14.586l95.743-155.042
		c0.06-0.096,0.119-0.195,0.174-0.295c3.411-6.07,5.989-15.895,5.994-22.856l0.135-152.547
		C483.529,110.043,468.945,95.461,451.022,95.461z"/>
	<path style="fill:#1D2328;" d="M370.148,114.147C370.148,51.207,318.942,0,256.001,0S141.854,51.207,141.854,114.147
		s51.207,114.147,114.147,114.147S370.148,177.088,370.148,114.147z M256.001,16.623c7.159,0,14.139,0.782,20.863,2.254
		c-3.647,7.976-11.751,13.457-20.863,13.457c-9.113,0-17.216-5.482-20.863-13.457C241.862,17.406,248.842,16.623,256.001,16.623z
		 M158.477,114.147c0-29.89,13.528-56.667,34.771-74.568v45.385h-19.798c-4.59,0-8.312,3.721-8.312,8.312v45.991
		c0,4.59,3.721,8.312,8.312,8.312h27.337c1.502,0,2.771,1.269,2.771,2.771v21.281c0,4.59,3.721,8.312,8.312,8.312
		c4.59,0,8.312-3.721,8.312-8.312V150.35c0-10.694-8.701-19.394-19.394-19.394h-19.025v-29.368h19.798
		c4.59,0,8.312-3.47,8.312-7.749V28.805c0-0.181-0.016-0.357-0.029-0.534c3.025-1.632,6.143-3.116,9.349-4.427
		c5.841,14.785,20.38,25.115,36.81,25.115c16.428,0,30.968-10.33,36.809-25.115c13.529,5.534,25.54,14.03,35.242,24.667H292.03
		c-4.59,0-8.312,3.721-8.312,8.312v8.379h-26.412c-4.59,0-8.312,3.721-8.312,8.312c0,0.187,0.016,0.37,0.028,0.554
		c-0.012,0.184-0.028,0.367-0.028,0.554v24.381c0,4.59,3.721,8.312,8.312,8.312c4.59,0,8.312-3.721,8.312-8.312V81.825h26.412
		c4.59,0,8.312-3.721,8.312-8.312v-8.379h39.945c8.414,14.408,13.239,31.157,13.239,49.013c0,9.003-1.232,17.723-3.526,26.005
		l-10.754-19.971c-1.45-2.692-4.26-4.371-7.319-4.371H248.44c-4.59,0-8.312,3.721-8.312,8.312v40.335
		c0,10.693,7.705,19.394,17.177,19.394h11.636v26.961c-4.236,0.564-8.554,0.86-12.941,0.86
		C202.227,211.671,158.477,167.922,158.477,114.147z M285.565,207.085v-31.548c0-4.59-3.721-8.312-8.312-8.312H257.65
		c-0.326-0.328-0.899-1.278-0.899-2.771v-32.022h70.211l12.012,22.306l2.957,5.49C330.028,182.333,309.846,199.344,285.565,207.085z
		"/>
</g>
<g>
</g>
<g>
</g>
<g>
</g>
<g>
</g>
<g>
</g>
<g>
</g>
<g>
</g>
<g>
</g>
<g>
</g>
<g>
</g>
<g>
</g>
<g>
</g>
<g>
</g>
<g>
</g>
<g>
</g>
</svg>
